<svg width="40" height="40" viewBox="0 0 40 40" fill="none" xmlns="http://www.w3.org/2000/svg">
<path d="M20.3528 7.24635L19.9992 6.8928L19.6457 7.24635L10.4123 16.4797C10.1243 16.7678 9.64084 16.7678 9.35277 16.4797C9.0647 16.1916 9.0647 15.7082 9.35277 15.4201L19.4694 5.30346C19.7575 5.01538 20.2409 5.01538 20.529 5.30346L30.6457 15.4201C30.9337 15.7082 30.9337 16.1916 30.6457 16.4797L30.6396 16.4858L30.6337 16.4921C30.5101 16.6245 30.3179 16.6999 30.1159 16.6999C29.9247 16.6999 29.7374 16.631 29.5861 16.4797L20.3528 7.24635Z" fill="white" stroke="white"/>
<path d="M20 34.9167C19.5928 34.9167 19.25 34.5739 19.25 34.1667V6.1167C19.25 5.70951 19.5928 5.3667 20 5.3667C20.4072 5.3667 20.75 5.70951 20.75 6.1167V34.1667C20.75 34.5739 20.4072 34.9167 20 34.9167Z" fill="white" stroke="white"/>
</svg>
